<svg xmlns="http://www.w3.org/2000/svg" xmlns:xlink="http://www.w3.org/1999/xlink" version="1.1" id="Layer_1" x="0px" y="0px" viewBox="0 0 84 32.2" style="enable-background:new 0 0 84 32.2;" xml:space="preserve">
<style type="text/css">
	.st0{fill:#FFFFFF;}
	.st1{fill:#61CCFE;}
	.st2{fill:#0964C0;}
</style>
<g>
	<g>
		<path class="st0" d="M36.9,23.8V10.3l1.9-2.3h8.8l1.9,2.3v13.4l-0.3,0.3h-2.7l-0.3-0.3v-5.4h-6.1v5.4l-0.3,0.3h-2.7L36.9,23.8z     M46.3,15v-2.7l-0.6-0.8h-4.8l-0.7,0.8V15H46.3z"/>
		<path class="st0" d="M54.4,8.4l0.3-0.3h2.5l0.3,0.3l7.1,9.7V8.4l0.3-0.3h2.7l0.3,0.3v15.4l-0.3,0.3h-2.4l-0.4-0.3l-7.1-9.7v9.6    l-0.3,0.3h-2.7l-0.3-0.3V8.4z"/>
		<path class="st0" d="M72.6,23.8L73,21l0.3-0.3h6.8l0.7-0.8v-1.3l-0.7-0.8h-5.5l-1.9-2.3v-5.2l1.9-2.3h9.2L84,8.4l-0.3,2.8    l-0.3,0.3h-6.9l-0.6,0.8v1.4l0.6,0.8h5.6l1.9,2.3v5.1l-1.9,2.3h-9.2L72.6,23.8z"/>
	</g>
	<g>
		<path class="st0" d="M29.1,25.2c-2.4,0-4.6,0-6.8,0c-0.4,0-0.6-0.2-0.7-0.5c-3.4-6-6.9-11.9-10.3-17.9C11,6.6,10.9,6.3,11,6    c1.1-1.9,2.3-3.9,3.5-6C19.4,8.4,24.2,16.8,29.1,25.2z"/>
		<path class="st1" d="M5.6,8.8C6,7.8,5.7,6.7,6,5.7c0.5-1.9,1.4-3.4,3-4.8C8.8,2,8.5,3,8.3,3.9C8,7,9.2,9.5,10.8,12    c1.6,2.4,3.4,4.7,4.8,7.2c1,1.8,1.8,3.7,2,5.7c0.3,2.9-0.7,5.3-3.2,7.2c0.1-0.6,0-1,0.3-1.4c0.7-2.5,0.2-4.8-1-7.1    c-0.9-1.6-2-3-3-4.5c-1.9-2.7-3.7-5.3-4.6-8.5C5.8,10,5.7,9.4,5.6,8.8z"/>
		<path class="st2" d="M5.6,8.8c0.5,0.4,0.4,1,0.5,1.5c0.9,3.3,2.8,6,4.7,8.7c1.4,2,3,4,3.9,6.4c0.6,1.8,0.8,3.5,0,5.3    c0.3-2.2-0.3-4.1-1.7-5.8c-1.3-1.7-2.8-3.1-4.1-4.8c-1.3-1.6-2.5-3.2-3.3-5.1C4.7,13,4.7,10.9,5.6,8.8z"/>
		<path class="st0" d="M8.5,25.2c-2.9,0-5.6,0-8.5,0c1.4-2.5,2.8-4.8,4.2-7.3C5.7,20.3,7.1,22.7,8.5,25.2z"/>
	</g>
</g>
</svg>