<?xml version="1.0" encoding="utf-8"?>
<!-- Generator: Adobe Illustrator 26.0.0, SVG Export Plug-In . SVG Version: 6.00 Build 0)  -->
<svg version="1.1" id="Layer_1" xmlns="http://www.w3.org/2000/svg" xmlns:xlink="http://www.w3.org/1999/xlink" x="0px" y="0px"
	 viewBox="0 0 588.1 566.6" style="enable-background:new 0 0 588.1 566.6;" xml:space="preserve">
<style type="text/css">
	.st0{fill:#FFFFFF;}
	.st1{fill:#61CCFE;}
	.st2{fill:#0964C0;}
</style>
<g>
	<g>
		<path class="st0" d="M26.8,503l0.8-0.8h7.2l0.9,0.6l20.7,23.6V503l0.8-0.8h7.9l0.8,0.8v37.6l-0.8,0.8h-6.9l-1.2-0.6l-20.7-23.6
			v23.4l-0.8,0.8h-7.9l-0.8-0.8V503z"/>
		<path class="st0" d="M80.1,540.6v-32.8l5.6-5.6h25.7l5.6,5.6v32.8l-0.8,0.8h-7.9l-0.8-0.8v-13.1H89.6v13.1l-0.8,0.8h-7.9
			L80.1,540.6z M107.5,519.1v-6.7l-1.8-1.8H91.5l-1.9,1.8v6.7H107.5z"/>
		<path class="st0" d="M164.5,502.8l0.9-0.6h7.8l0.8,0.8v37.6l-0.8,0.8h-7.9l-0.8-0.8v-22.9l-11.8,14.8l-11.9-14.8v22.9l-0.8,0.8
			H132l-0.8-0.8V503l0.8-0.8h7.8l0.9,0.6l11.9,15.8L164.5,502.8z"/>
		<path class="st0" d="M188.2,540.6V503l0.8-0.8h31.5l0.8,0.8l-1,6.8l-0.9,0.8h-21.7v7h18.1l0.8,0.8l-1,6.8l-0.8,0.8h-17.1v6.9h21.8
			l0.8,0.8l1,6.8l-0.8,0.8h-31.5L188.2,540.6z"/>
		<path class="st0" d="M256.5,540.6l1-6.8l0.8-0.8h20l1.9-1.8v-3.2l-1.9-1.9h-16.2l-5.6-5.6v-12.6l5.6-5.6h26.8l0.8,0.8l-1,6.8
			l-0.8,0.8h-20l-1.8,1.8v3.4l1.8,1.8h16.2l5.6,5.6v12.5l-5.6,5.6h-26.8L256.5,540.6z"/>
		<path class="st0" d="M304,540.6V503l0.8-0.8h31.5l0.8,0.8l-1,6.8l-0.9,0.8h-21.7v7h18.1l0.8,0.8l-1,6.8l-0.8,0.8h-17.1v6.9h21.8
			l0.8,0.8l1,6.8l-0.8,0.8h-31.5L304,540.6z"/>
		<path class="st0" d="M351.4,540.6V503l0.8-0.8h30.5l5.6,5.6v9.8l-5.5,5.7v0.3l5.5,5.6v11.2l-0.8,0.8h-7.9l-0.8-0.8v-11l-2.1-2.1
			h-15.8v13.1l-0.8,0.8h-7.9L351.4,540.6z M376.7,519.1l2-2.1v-4.5l-1.8-1.8h-16v8.5H376.7z"/>
		<path class="st0" d="M429.8,515.6V503l0.8-0.8h7.9l0.8,0.8v16.2l-0.4,1L424.3,541l-1,0.4h-4.9l-1-0.4l-14.6-20.8l-0.4-1V503
			l0.8-0.8h7.9l0.8,0.8v12.6l8.7,15.4L429.8,515.6z"/>
		<path class="st0" d="M454.3,502.2h7.9l0.8,0.8v37.6l-0.8,0.8h-7.9l-0.8-0.8V503L454.3,502.2z"/>
		<path class="st0" d="M514.2,507.8v7.2l-0.8,0.8h-7.9l-0.8-0.8v-2.5l-1.9-1.9h-14.1l-1.8,1.8v18.7l1.8,1.8h14.1l1.9-1.9v-2.5
			l0.8-0.8h7.9l0.8,0.8v7.2l-5.6,5.6h-25.7l-5.6-5.6v-28l5.6-5.6h25.7L514.2,507.8z"/>
		<path class="st0" d="M528.2,540.6V503l0.8-0.8h31.5l0.8,0.8l-1,6.8l-0.9,0.8h-21.7v7h18.1l0.8,0.8l-1,6.8l-0.8,0.8h-17.1v6.9h21.8
			l0.8,0.8l1,6.8l-0.8,0.8h-31.5L528.2,540.6z"/>
	</g>
	<g>
		<path class="st1" d="M0,474.9v-52.4l8.9-8.9h41l8.9,8.9v52.4l-1.3,1.3H45l-1.3-1.3V454H15.2v20.9l-1.3,1.3H1.3L0,474.9z
			 M43.7,440.6V430l-2.9-2.9H18.2l-3,2.9v10.6H43.7z"/>
		<path class="st1" d="M81.7,474.9v-60.1l1.3-1.3h48.7l8.9,8.9v15.7l-8.8,9.1v0.5l8.8,9v18l-1.3,1.3h-12.7l-1.3-1.3v-17.5l-3.3-3.4
			H96.9v20.9l-1.3,1.3H82.9L81.7,474.9z M122.2,440.6l3.2-3.4V430l-2.9-2.9H96.9v13.6H122.2z"/>
		<path class="st1" d="M163.4,474.9v-60.1l1.3-1.3h48.7l8.9,8.9V436l-8.4,9.2v0.4l8.4,9.1v12.4l-8.9,8.9h-48.7L163.4,474.9z
			 M204.2,439.9l2.9-3.4V430l-2.9-2.9h-25.6v12.9H204.2z M204.1,462.8l2.9-2.9v-6l-2.9-3.5h-25.7v12.4H204.1z"/>
		<path class="st1" d="M246.3,413.6H259l1.3,1.3v60.1l-1.3,1.3h-12.7l-1.3-1.3v-60.1L246.3,413.6z"/>
		<path class="st1" d="M280.4,414.9l1.3-1.3h53.5l1.3,1.3l-1.5,12.7l-1.3,1.3H316V475l-1.3,1.3h-12.6l-1.3-1.3v-46.2h-17.5l-1.3-1.3
			L280.4,414.9z"/>
		<path class="st1" d="M356.5,474.9v-60.1l1.3-1.3h48.7l8.9,8.9v15.7l-8.8,9.1v0.5l8.8,9v18l-1.3,1.3h-12.7l-1.3-1.3v-17.5l-3.3-3.4
			h-25.2v20.9l-1.3,1.3h-12.7L356.5,474.9z M397,440.6l3.2-3.4V430l-2.9-2.9h-25.6v13.6H397z"/>
		<path class="st1" d="M497.1,414.9v52.4l-8.9,8.9h-41l-8.9-8.9v-52.4l1.3-1.3h12.7l1.3,1.3v44.9l3,3h22.4l3-3v-44.9l1.3-1.3h12.7
			L497.1,414.9z"/>
		<path class="st1" d="M573,414.5l1.4-0.9h12.4l1.3,1.3v60.1l-1.3,1.3h-12.7l-1.3-1.3v-36.6l-18.9,23.6l-18.9-23.6v36.6l-1.3,1.3
			h-12.7l-1.3-1.3v-60.1l1.3-1.3h12.5l1.4,0.9l19,25.2L573,414.5z"/>
	</g>
	<g>
		<path class="st0" d="M456.3,306.5c-26.8,0-51.6-0.1-76.5,0.1c-4.6,0-6.4-2.4-8.3-5.7c-38.4-66.6-76.8-133.1-115.2-199.7
			c-1.6-2.8-3.3-5.3-1.1-9c12.8-21.7,25.3-43.5,38.8-67C348.3,119.5,401.9,212.3,456.3,306.5z"/>
		<path class="st1" d="M194.7,123.4c4.1-11.2,1.1-23.2,4.1-34.7c5.4-20.8,15.3-38.4,33.3-53.4c-1.9,12.7-5.9,22.9-7.1,33.8
			c-3.8,33.9,9.7,62.3,27.3,89.6c17.6,27.1,37.5,52.5,53.3,80.8c11.2,20,20,40.9,22.2,63.9c3,32.2-8.3,58.7-35.6,80.6
			c1.4-6.7,0.1-11.5,3.2-15.8c7.9-28.1,2.4-54.1-11.7-78.9c-9.9-17.6-22.2-33.7-33.7-50.2c-20.7-29.8-41.7-59.6-51.6-95.3
			C196.6,137.1,195.5,130.3,194.7,123.4z"/>
		<path class="st2" d="M194.7,123.4c5.7,4.4,4.2,11.4,5.7,17.2c9.7,36.6,31,66.9,52.2,97.3c15.9,22.8,33.7,44.6,43.3,71.2
			c7.1,19.7,9.4,39.6-0.5,59.3c3.5-24.3-3.9-45.4-18.6-64.6c-14.3-18.6-31-35.2-46.1-53c-14.7-17.4-28.4-35.4-36.8-56.9
			C184.8,170.2,183.9,146.8,194.7,123.4z"/>
		<path class="st0" d="M226.3,306.1c-32.2,0-62.5,0-94.5,0c15.9-27.5,31.1-53.9,47.3-81.9C195.2,252.1,210.6,278.7,226.3,306.1z"/>
	</g>
</g>
</svg>
